<svg width="41" height="41" viewBox="0 0 41 41" fill="none" xmlns="http://www.w3.org/2000/svg">
<rect x="0.84375" y="0.5" width="40" height="40" rx="20" fill="#1B1B1B"/>
<path d="M28.8031 17.7041C28.7656 16.8539 28.6281 16.2694 28.4311 15.763C28.2279 15.2254 27.9153 14.7441 27.5057 14.344C27.1055 13.9377 26.621 13.6219 26.0895 13.422C25.58 13.225 24.9985 13.0875 24.1482 13.0501C23.2915 13.0094 23.0196 13 20.8469 13C18.6741 13 18.4022 13.0094 17.5487 13.0469C16.6984 13.0844 16.1138 13.222 15.6074 13.4188C15.0696 13.6219 14.5882 13.9345 14.188 14.344C13.7816 14.7441 13.4659 15.2286 13.2658 15.7599C13.0688 16.2694 12.9313 16.8507 12.8938 17.7009C12.8532 18.5574 12.8438 18.8293 12.8438 21.0016C12.8438 23.1739 12.8532 23.4458 12.8906 24.2991C12.9281 25.1493 13.0658 25.7337 13.2627 26.2402C13.4659 26.7778 13.7816 27.2591 14.188 27.6592C14.5882 28.0655 15.0728 28.3812 15.6042 28.5812C16.1138 28.7782 16.6952 28.9156 17.5457 28.9531C18.399 28.9907 18.6711 29 20.8438 29C23.0165 29 23.2885 28.9907 24.142 28.9531C24.9923 28.9156 25.5769 28.7782 26.0833 28.5812C27.1588 28.1655 28.0091 27.3153 28.4249 26.2402C28.6217 25.7307 28.7594 25.1493 28.7969 24.2991C28.8343 23.4458 28.8437 23.1739 28.8437 21.0016C28.8437 18.8293 28.8406 18.5574 28.8031 17.7041ZM27.362 24.2366C27.3275 25.018 27.1963 25.44 27.0868 25.7213C26.8179 26.4183 26.2646 26.9715 25.5675 27.2404C25.2861 27.3498 24.861 27.481 24.0825 27.5153C23.2384 27.5529 22.9853 27.5622 20.85 27.5622C18.7148 27.5622 18.4585 27.5529 17.6175 27.5153C16.8359 27.481 16.4139 27.3498 16.1325 27.2404C15.7856 27.1122 15.4698 26.909 15.2134 26.6433C14.9477 26.3839 14.7445 26.0713 14.6163 25.7244C14.5069 25.4431 14.3756 25.018 14.3413 24.2398C14.3037 23.3959 14.2944 23.1426 14.2944 21.0078C14.2944 18.873 14.3037 18.6167 14.3413 17.776C14.3756 16.9946 14.5069 16.5726 14.6163 16.2913C14.7445 15.9443 14.9477 15.6287 15.2166 15.3723C15.476 15.1066 15.7886 14.9035 16.1357 14.7754C16.417 14.666 16.8423 14.5347 17.6206 14.5003C18.4647 14.4628 18.718 14.4534 20.8531 14.4534C22.9915 14.4534 23.2446 14.4628 24.0857 14.5003C24.8672 14.5347 25.2893 14.666 25.5706 14.7754C25.9176 14.9035 26.2334 15.1066 26.4897 15.3723C26.7554 15.6317 26.9586 15.9443 27.0868 16.2913C27.1963 16.5726 27.3275 16.9976 27.362 17.776C27.3995 18.6199 27.4089 18.873 27.4089 21.0078C27.4089 23.1426 27.3995 23.3927 27.362 24.2366Z" fill="white"/>
<path d="M20.5476 17.1482C18.2575 17.1482 16.3994 18.8734 16.3994 21C16.3994 23.1266 18.2575 24.8519 20.5476 24.8519C22.8378 24.8519 24.6957 23.1266 24.6957 21C24.6957 18.8734 22.8378 17.1482 20.5476 17.1482ZM20.5476 23.4986C19.0619 23.4986 17.8568 22.3797 17.8568 21C17.8568 19.6203 19.0619 18.5014 20.5476 18.5014C22.0334 18.5014 23.2384 19.6203 23.2384 21C23.2384 22.3797 22.0334 23.4986 20.5476 23.4986Z" fill="white"/>
<path d="M25.8808 16.8517C25.8808 17.3426 25.4828 17.7406 24.9919 17.7406C24.501 17.7406 24.103 17.3426 24.103 16.8517C24.103 16.3607 24.501 15.9628 24.9919 15.9628C25.4828 15.9628 25.8808 16.3607 25.8808 16.8517Z" fill="white"/>
</svg>
