<?xml version="1.0" encoding="UTF-8"?>
<svg version="1.1" xmlns="http://www.w3.org/2000/svg" width="1184" height="982">
<path d="M0 0 C0.66 0 1.32 0 2 0 C2.03427795 61.24171178 2.06607706 122.48342466 2.08468628 183.72514343 C2.08496239 184.63149578 2.08523851 185.53784813 2.08552299 186.4716657 C2.09150876 206.16899816 2.09704913 225.86633073 2.10213066 245.56366344 C2.10462534 255.22318776 2.10721845 264.88271205 2.10986328 274.54223633 C2.1101248 275.50347667 2.11038632 276.46471702 2.11065576 277.45508586 C2.11917892 308.61336744 2.13420189 339.77164176 2.15259444 370.92991895 C2.17146037 402.9482734 2.18377106 434.96662384 2.18782998 466.98498376 C2.18840629 471.50703516 2.18905757 476.02908654 2.18975449 480.55113792 C2.18988933 481.44114518 2.19002418 482.33115244 2.19016311 483.24812961 C2.19252682 497.57655122 2.20180371 511.90496042 2.21366407 526.23337697 C2.22543937 540.63719733 2.22993575 555.04100539 2.22700275 569.4448304 C2.22548127 578.00307262 2.22954013 586.56126982 2.24159509 595.11950393 C2.24910019 600.83822526 2.24932354 606.55691714 2.24366363 612.27564051 C2.24064718 615.53292221 2.24187047 618.79010177 2.24976636 622.04737774 C2.25778968 625.5612888 2.25346745 629.07497953 2.24609566 632.58888721 C2.25134968 633.59318853 2.25660371 634.59748984 2.26201695 635.63222453 C2.19753898 649.22966194 -0.5179775 661.01482942 -9.98828125 671.18359375 C-18.78611938 679.12727284 -29.08011879 682.46905051 -40.73995972 682.38768005 C-41.67910536 682.39306559 -42.618251 682.39845113 -43.5858556 682.40399987 C-46.71085616 682.41822754 -49.83543002 682.41118849 -52.96044922 682.40405273 C-55.20991352 682.40975902 -57.45937493 682.41672429 -59.70883179 682.42485046 C-65.80392623 682.44276877 -71.89887661 682.44161586 -77.99398947 682.43590808 C-83.08833764 682.43281416 -88.18265821 682.438911 -93.27700245 682.44494683 C-105.98520762 682.45978828 -118.6933111 682.45618229 -131.40151002 682.44408352 C-142.41899887 682.43415427 -153.43631971 682.44708936 -164.45378266 682.47101771 C-175.78703718 682.49544503 -187.12019144 682.50460852 -198.45347989 682.49836498 C-204.8080375 682.49499843 -211.16245634 682.49739059 -217.51699448 682.51461601 C-223.49414851 682.53011177 -229.47098243 682.52610005 -235.44812393 682.50731087 C-237.63658844 682.50363224 -239.8250768 682.50671215 -242.01351929 682.51719666 C-256.70409281 682.5821814 -269.29230653 681.97083785 -281 672 C-291.49248028 661.37683047 -294.16791258 649.45872594 -294.12469864 634.94183064 C-294.12604287 634.04757595 -294.12738711 633.15332127 -294.12877208 632.23196796 C-294.13208436 629.23196455 -294.12829311 626.2320122 -294.12457275 623.23200989 C-294.12555908 621.06075078 -294.12699627 618.88949183 -294.12884593 616.71823329 C-294.13190541 611.99555712 -294.13179701 607.27289505 -294.12928963 602.55021858 C-294.12523028 594.86612705 -294.12799887 587.18204654 -294.13163757 579.49795532 C-294.13614685 569.06604645 -294.13799594 558.63414014 -294.13806866 548.20223035 C-294.13831988 530.58982598 -294.15000383 512.97744242 -294.16567924 495.36504567 C-294.16900361 491.61542725 -294.17222545 487.86580875 -294.1754601 484.11619025 C-294.17939625 479.5641766 -294.18334283 475.01216296 -294.18732132 470.46014935 C-294.20229162 453.2975713 -294.2159107 436.13499242 -294.22802734 418.97241211 C-294.2285855 418.18817932 -294.22914367 417.40394654 -294.22971874 416.59594912 C-294.24771726 391.16615042 -294.25204259 365.73636873 -294.25032832 340.3065645 C-294.24865862 314.15415395 -294.26357211 288.00179955 -294.29825316 261.84941091 C-294.30313851 258.15489911 -294.30782025 254.46038709 -294.3123703 250.76587486 C-294.31326984 250.03878914 -294.31416937 249.31170341 -294.31509616 248.56258479 C-294.32904815 236.86894559 -294.3253176 225.17537585 -294.31475838 213.48173584 C-294.30447891 201.7257542 -294.31256089 189.96990312 -294.3381761 178.21394417 C-294.35148831 171.8469073 -294.35666315 165.48013512 -294.34005547 159.11310005 C-294.32501358 153.28188803 -294.33303205 147.45117479 -294.359225 141.6200064 C-294.36463978 139.51302179 -294.36165206 137.40599488 -294.34930804 135.29903946 C-294.26697223 120.12917863 -295.38243677 108.68436011 -306.38671875 97.19921875 C-312.28871335 92.23236828 -320.24476727 87.8851632 -328.10220337 87.86577892 C-328.94089116 87.86132108 -329.77957895 87.85686324 -330.64368153 87.85227031 C-331.56515822 87.85245467 -332.48663492 87.85263903 -333.43603516 87.85282898 C-334.41497333 87.84915229 -335.3939115 87.8454756 -336.40251446 87.8416875 C-339.69803572 87.83063374 -342.99352546 87.82680391 -346.2890625 87.82299805 C-348.64601238 87.81673456 -351.00296126 87.81008786 -353.35990906 87.80308533 C-360.44516361 87.78384386 -367.53041463 87.77325365 -374.6156888 87.76435754 C-377.95451733 87.75997272 -381.29334436 87.75460629 -384.63217163 87.74936867 C-395.73609589 87.73235423 -406.84001917 87.71786209 -417.94395447 87.71061993 C-420.82542929 87.7087101 -423.70690411 87.70678976 -426.58837891 87.70483398 C-427.30453515 87.70435024 -428.02069139 87.7038665 -428.75854933 87.7033681 C-440.34869212 87.69507546 -451.93873145 87.6697525 -463.5288291 87.63725331 C-475.43591992 87.60413841 -487.34295827 87.58616704 -499.25009537 87.58297569 C-505.93227042 87.58081432 -512.614315 87.57167507 -519.29644775 87.54651451 C-525.58702734 87.52321194 -531.87733618 87.51900961 -538.16794777 87.52927589 C-540.47252109 87.52977086 -542.77710784 87.52346199 -545.08164024 87.50971985 C-560.46101816 87.42316918 -573.40422913 87.56276506 -585 99 C-592.85738168 108.27802435 -595.61039976 118.78189946 -595.50780869 130.7234602 C-595.51411244 131.85723261 -595.52041619 132.99100503 -595.52691096 134.15913418 C-595.54314527 137.94990079 -595.53101669 141.74003314 -595.51898193 145.5308075 C-595.52263931 148.27918285 -595.53231856 151.02752971 -595.541713 153.77589065 C-595.558944 159.74681101 -595.56144801 165.71759502 -595.55419731 171.68853378 C-595.54348319 180.56700402 -595.55570541 189.44534022 -595.57256903 198.32379564 C-595.60029237 213.26024457 -595.60950142 228.19665108 -595.60811615 243.1331234 C-595.60680545 257.91960035 -595.61374977 272.70603559 -595.63169098 287.49250221 C-595.63280237 288.41228034 -595.63391376 289.33205846 -595.63505882 290.27970865 C-595.640746 294.95090008 -595.64658039 299.62209131 -595.65247145 304.29328249 C-595.69392043 337.36926432 -595.71690308 370.44523573 -595.72900391 403.52124023 C-595.74080115 435.65178612 -595.7609766 467.78230892 -595.79248047 499.9128418 C-595.79344842 500.90344813 -595.79441637 501.89405447 -595.79541365 502.91467918 C-595.80514357 512.86286107 -595.81504365 522.81104278 -595.82506842 532.75922438 C-595.84548568 553.02436257 -595.8647672 573.28950178 -595.88336182 593.55464172 C-595.88464631 594.95224341 -595.88464631 594.95224341 -595.88595675 596.37807947 C-595.94299943 658.58537356 -595.97356767 720.79268629 -596 783 C-596.66 783 -597.32 783 -598 783 C-598.05141613 719.94689007 -598.0991149 656.89377769 -598.12702942 593.84065247 C-598.12744359 592.9075151 -598.12785776 591.97437774 -598.12828448 591.01296349 C-598.13726311 570.73360039 -598.14557367 550.45423707 -598.15319599 530.17487342 C-598.15693801 520.22994486 -598.16082767 510.28501636 -598.16479492 500.34008789 C-598.1651872 499.35044553 -598.16557948 498.36080318 -598.16598364 497.34117166 C-598.17876873 465.2613511 -598.20130345 433.18154639 -598.22889166 401.10173543 C-598.25718956 368.13683479 -598.27565636 335.17194292 -598.28174497 302.20703033 C-598.28260944 297.55146027 -598.28358635 292.89589023 -598.28463173 288.24032021 C-598.284834 287.32403309 -598.28503627 286.40774597 -598.28524467 285.46369258 C-598.28879045 270.71126017 -598.30270635 255.95885486 -598.3204961 241.2064335 C-598.33815765 226.37693128 -598.34490398 211.54745595 -598.34050413 196.71794357 C-598.33822162 187.90639686 -598.34431257 179.09494854 -598.36239263 170.28341958 C-598.37364819 164.39585576 -598.37398682 158.50835631 -598.36549544 152.62078803 C-598.36096957 149.26700253 -598.36280877 145.91355394 -598.37464955 142.55976393 C-598.38667982 138.94229379 -598.38020447 135.32530554 -598.36914349 131.70784283 C-598.37702453 130.67305895 -598.38490557 129.63827507 -598.39302543 128.57213411 C-598.31005249 116.57178525 -595.20008617 105.64787017 -586.890625 96.73828125 C-577.44521526 87.92799389 -567.82916175 84.68918413 -555.08294678 84.73257446 C-554.10059091 84.72804335 -553.11823504 84.72351224 -552.10611081 84.71884382 C-548.82297101 84.70621002 -545.53999732 84.70781955 -542.25683594 84.70947266 C-539.89929491 84.70348676 -537.54175585 84.69668107 -535.18421936 84.68911743 C-528.78532854 84.67145602 -522.38649123 84.66676197 -515.98757839 84.66548586 C-511.98782189 84.66449649 -507.98807206 84.6599209 -503.9883194 84.65449142 C-490.74904752 84.63688696 -477.50980801 84.62765123 -464.27052435 84.62915237 C-463.5575062 84.62923228 -462.84448805 84.6293122 -462.10986328 84.62939453 C-461.03902193 84.62951717 -461.03902193 84.62951717 -459.94654742 84.62964229 C-448.38251855 84.63045482 -436.81862004 84.61132347 -425.25462887 84.5831178 C-413.3654844 84.55434914 -401.47640343 84.54057971 -389.58722329 84.54230535 C-382.91853263 84.54296791 -376.24995951 84.53714259 -369.5812912 84.51594925 C-363.3070611 84.49655374 -357.0331191 84.49645173 -350.75887871 84.51098251 C-348.4607571 84.51307008 -346.16261739 84.50837288 -343.86452675 84.4962616 C-327.49470019 84.41560241 -315.10143915 85.17658211 -302.87109375 97.0703125 C-294.70892373 105.69846276 -291.84209 113.99890337 -291.87250805 125.71746731 C-291.87086422 126.61133761 -291.86922038 127.50520791 -291.86752674 128.42616519 C-291.86319037 131.44293402 -291.86599352 134.45965503 -291.86869812 137.47642517 C-291.86699675 139.65263216 -291.86484742 141.82883885 -291.86228687 144.005045 C-291.85768175 148.74785284 -291.85627058 153.49064762 -291.85725212 158.23345757 C-291.85884203 165.94968048 -291.85364887 173.66589039 -291.84762573 181.3821106 C-291.83990919 191.85787279 -291.83496737 202.3336331 -291.83197013 212.80939765 C-291.82682851 230.49822224 -291.81136342 248.18702665 -291.79239365 265.87584128 C-291.78837207 269.64023702 -291.78445117 273.40463286 -291.78052729 277.1690287 C-291.77974464 277.91947311 -291.77896198 278.66991752 -291.77815561 279.44310267 C-291.77657002 280.96384139 -291.7749852 282.48458011 -291.77340112 284.00531883 C-291.77180984 285.53171066 -291.77021559 287.0581025 -291.76861839 288.58449432 C-291.74978335 306.58993811 -291.73270007 324.59538325 -291.71704102 342.60083008 C-291.7163521 343.38877045 -291.71566318 344.17671082 -291.71495338 344.98852817 C-291.69270055 370.52838527 -291.68085551 396.06823652 -291.67337446 421.60810174 C-291.66560649 447.86771251 -291.64453474 474.12728339 -291.60783185 500.38687027 C-291.60265833 504.09726943 -291.59765095 507.80766879 -291.59275246 511.51806831 C-291.5917855 512.24829242 -291.59081854 512.97851652 -291.58982228 513.73086863 C-291.5746912 525.47374447 -291.57378479 537.21658028 -291.57840959 548.95946319 C-291.58279802 560.76846397 -291.57254535 572.57737724 -291.54832252 584.38635444 C-291.5356559 590.78181254 -291.52948369 597.17710438 -291.54073906 603.57256889 C-291.55091678 609.4310319 -291.54263855 615.28917232 -291.5198761 621.14759726 C-291.51488722 623.26343701 -291.5165993 625.37930578 -291.52580877 627.49513137 C-291.59092352 643.73598882 -290.61181049 657.46171527 -279 670 C-270.86958089 677.04924636 -261.82935908 679.46142864 -251.25331116 679.38768005 C-250.31345995 679.39306559 -249.37360874 679.39845113 -248.40527719 679.40399987 C-245.27794276 679.41822756 -242.1510347 679.41118851 -239.02368164 679.40405273 C-236.77259482 679.40975898 -234.5215109 679.41672423 -232.27043152 679.42485046 C-226.17127214 679.44276818 -220.07225674 679.4416161 -213.97307897 679.43590808 C-208.87615121 679.4328144 -203.77925104 679.43891066 -198.68232721 679.44494683 C-185.96910333 679.45978774 -173.2559811 679.45618239 -160.54276346 679.44408352 C-149.51813258 679.43415176 -138.49366954 679.44709378 -127.46906454 679.47101771 C-116.1301648 679.49543702 -104.79136525 679.50461047 -93.45243162 679.49836498 C-87.09399353 679.49499707 -80.73569411 679.49739982 -74.37727547 679.51461601 C-68.3976622 679.53010052 -62.41836908 679.5261125 -56.43876839 679.50731087 C-54.24827129 679.50362929 -52.05775038 679.50672081 -49.86727524 679.51719666 C-46.86904109 679.53043743 -43.87186205 679.51883129 -40.87367249 679.50120544 C-39.58419656 679.51561295 -39.58419656 679.51561295 -38.26867062 679.53031152 C-28.53826778 679.41321505 -19.3566688 675.33111088 -12 669 C0.86442965 654.99150052 -0.42286964 637.68196374 -0.48101807 619.91203308 C-0.47513923 617.236172 -0.46767778 614.56035757 -0.458287 611.88451082 C-0.44107834 606.07823765 -0.43854376 600.27210471 -0.44580269 594.46581268 C-0.45652888 585.83220241 -0.4442825 577.19872969 -0.42743097 568.56513462 C-0.3997251 554.03973091 -0.39049785 539.51437083 -0.39188385 524.9889431 C-0.39319503 510.61161737 -0.38624298 496.23433454 -0.36830902 481.85701942 C-0.36664194 480.51498982 -0.36664194 480.51498982 -0.36494118 479.1458485 C-0.35925392 474.6019958 -0.35341954 470.05814329 -0.34752855 465.51429085 C-0.30609142 433.34896827 -0.28309983 401.18365642 -0.27099609 369.01831055 C-0.25919681 337.77448308 -0.23901739 306.53067933 -0.20751953 275.28686523 C-0.20655158 274.32341496 -0.20558363 273.35996468 -0.20458635 272.36731893 C-0.19485634 262.69175748 -0.18495626 253.01619621 -0.17493158 243.34063505 C-0.15451491 223.63125053 -0.13523326 203.92186496 -0.11663818 184.21247864 C-0.11578185 183.30631756 -0.11492553 182.40015649 -0.11404325 181.46653599 C-0.05701092 120.97770375 -0.02643525 60.4888524 0 0 Z " fill="#FFFFFF" transform="translate(602,100)"/>
</svg>
