<svg xmlns="http://www.w3.org/2000/svg" width="1184" height="982"><path d="M601.867 425.253c-.984 324.516-1.001 325.626-5.073 333.389-2.247 4.283-7.434 10.499-11.528 13.813l-7.443 6.025-116.738.579c-64.206.319-119.643.053-123.194-.59-8.588-1.557-18.925-10.921-23.433-21.227-3.486-7.969-3.704-20.969-4.645-276.735-.914-248.616-1.235-268.829-4.369-274.552-4.554-8.318-13.963-15.95-22.853-18.538-4.981-1.449-46.4-1.938-129.982-1.532l-122.672.595-8.46 5.947c-4.654 3.271-10.28 9.043-12.502 12.827-4.03 6.86-4.042 7.838-4.075 343.333L4.866 885.04l1.021-334.48 1.02-334.48 4.395-8.22c5.128-9.591 12.206-15.131 23.231-18.185 10.971-3.039 235.67-3.044 246.667-.006 10.578 2.923 21.484 14.589 24.377 26.076 1.645 6.536 2.263 80.307 2.263 270.321 0 288.383-.73 271.552 12.363 285.061 11.732 12.103 13.765 12.286 136.502 12.286 65.799 0 113.367-.778 117.347-1.919 11.196-3.211 19.758-10.362 24.914-20.806l4.886-9.899-.499-325.568-.5-325.568-.986 325.6" fill="#FFF" fill-rule="evenodd"/></svg>